<?xml version="1.0" encoding="UTF-8"?>
<svg id="Layer_2" data-name="Layer 2" xmlns="http://www.w3.org/2000/svg" xmlns:xlink="http://www.w3.org/1999/xlink" viewBox="0 0 166.15 167.24">
  <defs>
    <style>
      .cls-1 { fill: url(#linear-gradient-2); }
      .cls-2 { fill: url(#linear-gradient-3); }
      .cls-3 { fill: url(#linear-gradient); }
    </style>
    <linearGradient id="linear-gradient" x1="0" y1="0" x2="1" y2="1" gradientUnits="objectBoundingBox">
      <stop offset="0" stop-color="#ff0385"/>
      <stop offset="1" stop-color="#9a03ff"/>
    </linearGradient>
    <linearGradient id="linear-gradient-2" xlink:href="#linear-gradient" x1="0" y1="0" x2="1" y2="1" gradientUnits="objectBoundingBox"/>
    <linearGradient id="linear-gradient-3" xlink:href="#linear-gradient" x1="0" y1="0" x2="1" y2="1" gradientUnits="objectBoundingBox"/>
  </defs>
  <g id="Layer_1-2" data-name="Layer 1">
    <g>
      <path class="cls-3" d="M50.52,75.48c-1-3.72-.94-7.62.19-11.3,1.05-3.43-.88-7.06-4.31-8.11s-7.06.88-8.11,4.31c-1.84,6.02-1.94,12.41-.31,18.48.78,2.9,3.4,4.8,6.27,4.8.56,0,1.13-.07,1.69-.22,3.46-.93,5.51-4.5,4.58-7.96Z"/>
      <path class="cls-1" d="M74.61,37.12c-7.05-.95-14.35.42-20.56,3.84-3.14,1.73-4.28,5.68-2.55,8.82s5.68,4.28,8.82,2.55c7.88-4.35,17.84-2.94,24.21,3.44,7.93,7.93,7.93,20.84,0,28.78-6.58,6.58-16.75,7.87-24.74,3.14-3.09-1.83-7.07-.8-8.9,2.28-1.83,3.09-.81,7.07,2.28,8.9,5.28,3.12,11.13,4.64,16.94,4.64,8.62,0,17.16-3.34,23.59-9.78,13-13,13-34.15,0-47.14-5.21-5.21-11.82-8.49-19.12-9.47Z"/>
      <path class="cls-2" d="M114.95,120.85c3.14-.27,5.63-2.76,5.9-5.9l1.3-14.81,25.18,25.18-14.45,4.25c-2.11.62-3.77,2.28-4.4,4.4l-4.25,14.45-17.44-17.44c-2.54-2.54-6.65-2.54-9.18,0s-2.54,6.65,0,9.18l25.18,25.18c1.23,1.23,2.89,1.9,4.59,1.9.54,0,1.07-.07,1.6-.2,2.22-.57,3.98-2.26,4.63-4.46l6.34-21.54,21.54-6.34c2.2-.65,3.9-2.41,4.46-4.63.57-2.22-.08-4.57-1.7-6.2l-35.75-35.75,9.12-9.12c2.23-2.23,2.54-5.73.73-8.32l-12.11-17.29,1.84-21.03c.28-3.14-1.74-6.02-4.79-6.84l-20.39-5.46-12.11-17.29c-1.81-2.58-5.21-3.49-8.06-2.16l-19.13,8.92-20.39-5.46c-3.04-.82-6.23.67-7.57,3.53l-8.92,19.13-19.13,8.92c-2.85,1.33-4.34,4.52-3.53,7.57l5.46,20.39L.61,82.73c-1.33,2.86-.42,6.26,2.16,8.06l17.29,12.11,5.46,20.39c.81,3.04,3.7,5.06,6.84,4.79l21.03-1.84,17.29,12.11c1.12.79,2.43,1.17,3.72,1.17,1.68,0,3.34-.65,4.59-1.9l14.93-14.93,21.02-1.84ZM86.41,111.84l-12.74,12.74-14.77-10.34c-1.1-.77-2.4-1.17-3.72-1.17-.19,0-.38,0-.57.02l-17.95,1.57-4.66-17.41c-.4-1.47-1.3-2.76-2.55-3.64l-14.76-10.34,7.62-16.33c.65-1.38.78-2.95.39-4.43l-4.66-17.41,16.33-7.62c1.38-.64,2.5-1.76,3.14-3.14l7.62-16.33,17.41,4.67c1.47.4,3.04.26,4.43-.39l16.33-7.62,10.34,14.76c.88,1.25,2.16,2.15,3.64,2.55l17.41,4.67-1.57,17.95c-.14,1.52.27,3.04,1.15,4.29l10.34,14.76-12.74,12.74c-1.08,1.08-1.74,2.5-1.88,4.03l-1.57,17.96-17.95,1.57c-1.52.13-2.95.8-4.03,1.88Z"/>
    </g>
  </g>
</svg>
