<?xml version="1.0" encoding="UTF-8"?>
<svg id="Layer_2" data-name="Layer 2" xmlns="http://www.w3.org/2000/svg" xmlns:xlink="http://www.w3.org/1999/xlink" viewBox="0 0 169.69 167.36">
  <defs>
    <style>
      .cls-1 { fill: url(#linear-gradient-2); }
      .cls-2 { fill: url(#linear-gradient); }
    </style>
    <linearGradient id="linear-gradient" x1="0" y1="0" x2="1" y2="1" gradientUnits="objectBoundingBox">
      <stop offset="0" stop-color="#ff0385"/>
      <stop offset="1" stop-color="#9a03ff"/>
    </linearGradient>
    <linearGradient id="linear-gradient-2" xlink:href="#linear-gradient" x1="0" y1="0" x2="1" y2="1" gradientUnits="objectBoundingBox"/>
  </defs>
  <g id="Layer_1-2" data-name="Layer 1">
    <g>
      <path class="cls-2" d="M142.23,58.91c-2.44-2.63-6.55-2.79-9.18-.35-2.63,2.44-2.79,6.55-.35,9.18l15.63,16.88H51.8c-3.59,0-6.49,2.91-6.49,6.49s2.91,6.49,6.49,6.49h84.23v56.77h-29.24v-22.96c0-12.1-9.84-21.94-21.94-21.94s-21.94,9.84-21.94,21.94v22.96h-29.24v-62.95c0-.05,0-.1,0-.16,0-.05,0-.1,0-.16,0-3.59-2.91-6.49-6.49-6.49h-5.81l15.75-17.01c1.11-1.2,1.73-2.78,1.73-4.41V22.18h11.07v15.03c0,2.67,1.64,5.07,4.12,6.05,2.49.98,5.32.33,7.13-1.63l23.67-25.57,11.23,12.12c2.44,2.63,6.54,2.79,9.18.35,2.63-2.44,2.79-6.55.35-9.18l-15.99-17.27c-1.23-1.33-2.96-2.08-4.76-2.08s-3.54.75-4.76,2.08l-17.18,18.55v-4.95c0-3.59-2.91-6.49-6.49-6.49h-24.06c-3.59,0-6.49,2.91-6.49,6.49v44.96L1.73,86.7c-1.75,1.9-2.22,4.65-1.19,7.01,1.03,2.37,3.37,3.89,5.95,3.89h14.18v63.26c0,3.59,2.91,6.49,6.49,6.49h42.23c3.59,0,6.49-2.91,6.49-6.49v-29.45c0-4.94,4.02-8.95,8.95-8.95s8.95,4.02,8.95,8.95v29.45c0,3.59,2.91,6.49,6.49,6.49h42.23c3.59,0,6.49-2.91,6.49-6.49v-63.26h14.18c2.58,0,4.92-1.53,5.95-3.89s.57-5.12-1.19-7.01l-25.73-27.79Z"/>
      <path class="cls-1" d="M124.23,55.52c1.58,0,3.16-.57,4.41-1.73,2.63-2.44,2.79-6.55.35-9.18l-10.15-10.97c-2.44-2.63-6.54-2.79-9.18-.35-2.63,2.44-2.79,6.55-.35,9.18l10.15,10.97c1.28,1.38,3.02,2.08,4.77,2.08Z"/>
    </g>
  </g>
</svg>
