<?xml version="1.0" encoding="UTF-8"?>
<svg id="Layer_2" data-name="Layer 2" xmlns="http://www.w3.org/2000/svg" xmlns:xlink="http://www.w3.org/1999/xlink" viewBox="0 0 167.33 144.03">
  <defs>
    <style>
      .cls-1 { fill: url(#linear-gradient-2); }
      .cls-2 { fill: url(#linear-gradient); }
    </style>
    <linearGradient id="linear-gradient" x1="0" y1="0" x2="1" y2="1" gradientUnits="objectBoundingBox">
      <stop offset="0" stop-color="#ff0385"/>
      <stop offset="1" stop-color="#9a03ff"/>
    </linearGradient>
    <linearGradient id="linear-gradient-2" xlink:href="#linear-gradient" x1="0" y1="0" x2="1" y2="1" gradientUnits="objectBoundingBox"/>
  </defs>
  <g id="Layer_1-2" data-name="Layer 1">
    <g>
      <path class="cls-2" d="M131.46,75.31c2.83-5.52,4.42-11.76,4.42-18.37,0-22.29-18.14-40.43-40.43-40.43-3.54,0-6.98.46-10.26,1.32C79.82,7.07,68.74,0,56.28,0,38.45,0,23.95,14.5,23.95,32.33c0,4.77,1.04,9.31,2.91,13.39C10.34,55.86,0,74,0,93.7c0,3.59,2.91,6.49,6.49,6.49h19.77c3.59,0,6.49-2.91,6.49-6.49s-2.91-6.49-6.49-6.49h-12.79c1.96-12.92,9.71-24.35,21.07-30.95,5.63,5.12,13.07,8.28,21.23,8.4.73,3.76,1.98,7.34,3.68,10.66-9.62,5.57-17.83,13.3-24.01,22.66-7.76,11.75-11.86,25.43-11.86,39.56,0,3.59,2.91,6.49,6.49,6.49h65.38c3.59,0,6.49-2.91,6.49-6.49s-2.91-6.49-6.49-6.49h-58.53c2.11-19.03,13.43-35.97,30.3-45.2,7.29,7.12,17.26,11.52,28.23,11.52s20.94-4.4,28.23-11.52c16.87,9.23,28.18,26.17,30.3,45.2h-12.12c-3.59,0-6.49,2.91-6.49,6.49s2.91,6.49,6.49,6.49h18.98c3.59,0,6.49-2.91,6.49-6.49,0-14.13-4.1-27.81-11.86-39.56-6.18-9.36-14.4-17.09-24.01-22.66ZM55.38,51.65c-10.25-.47-18.44-8.95-18.44-19.32s8.68-19.34,19.34-19.34c7.26,0,13.72,4,17.03,10.15-9.61,6.31-16.37,16.61-17.93,28.52ZM95.46,84.38c-15.13,0-27.44-12.31-27.44-27.44s12.31-27.44,27.44-27.44,27.44,12.31,27.44,27.44-12.31,27.44-27.44,27.44Z"/>
      <path class="cls-1" d="M122.86,131.04h-8.39c-3.59,0-6.49,2.91-6.49,6.49s2.91,6.49,6.49,6.49h8.39c3.59,0,6.49-2.91,6.49-6.49s-2.91-6.49-6.49-6.49Z"/>
    </g>
  </g>
</svg>
